<?xml version="1.0" encoding="utf-8"?>
<!-- Generator: Adobe Illustrator 25.2.3, SVG Export Plug-In . SVG Version: 6.00 Build 0)  -->
<svg version="1.1" id="Layer_1" xmlns="http://www.w3.org/2000/svg" xmlns:xlink="http://www.w3.org/1999/xlink" x="0px" y="0px"
	 viewBox="0 0 400 400" style="enable-background:new 0 0 400 400;" xml:space="preserve">
<path d="M249,25.8l-2.8,31.6l-0.4,4.1c-0.6,6.8-2.1,24.5-6.1,70.1l-7.9,89.7l-58.3-95.5l-31.3-2.7l-12.5,142.9l-5.2,59.2
	c-14.9-9-28.2-20.7-39.3-34.8c-24.1-30.6-34.9-68.8-30.3-107.5s24-73.3,54.6-97.4c29.4-23.2,65.8-34,102.9-30.7c0,0,0.1,0,0.1,0
	l3-34.9c-46.1-4.1-91.2,9.4-127.7,38.1c-38,29.9-62,72.8-67.7,120.8c-5.7,48,7.6,95.3,37.5,133.3c24,30.5,56.4,52,93.1,62.3l2.9-33
	l0.2-2.6l6.1-70.1l8.2-93.2l60,99.1l29.3,2.6l12.5-142.9l5.2-59.1c47.5,28.8,76.6,83.5,69.6,142.2c-9.3,78.4-79.5,135-157.7,128.2
	l-3.1,34.9c0,0,0,0,0.1,0c96.8,8.5,183.8-61.7,195.4-158.9l0,0C390.3,131.8,333.3,49.5,249,25.8z" style="fill: #ffffff;" />
</svg>
