<svg id="Capa_1" enable-background="new 0 0 512 395" height="395" viewBox="0 0 512 395" width="512" xmlns="http://www.w3.org/2000/svg"><g><path fill="#ffffff" d="m210.168 109.343c14.523 7.071 29.943 10.657 45.832 10.657s31.309-3.586 45.832-10.657l17.846-8.689c-2.024-9.97-4.303-19.428-6.829-28.267-13.723-48.033-32.85-72.387-56.849-72.387s-43.126 24.354-56.849 72.387c-2.525 8.839-4.805 18.296-6.829 28.267z"/><path fill="#ffffff" d="m330.653 246.735c.233-7.461.347-14.645.347-21.735 0-32.86-2.113-64.652-6.108-93.518l-9.926 4.833c-18.65 9.081-38.488 13.685-58.966 13.685s-40.316-4.604-58.965-13.685l-9.926-4.833c-3.996 28.866-6.109 60.658-6.109 93.518 0 7.09.114 14.274.347 21.735l-30.347 9.105v89.16h24.845l16.228 40.571c2.278 5.695 7.793 9.429 13.927 9.429h100c6.134 0 11.649-3.734 13.927-9.429l16.228-40.571h24.845v-89.16zm-59.653 8.265c0 8.284-6.716 15-15 15s-15-6.716-15-15v-60c0-8.284 6.716-15 15-15s15 6.716 15 15z"/><path fill="#ffffff" d="m471 320v-75.949c0-28.685-10.113-56.617-28.477-78.653-2.85-3.42-7.072-5.397-11.523-5.397s-8.673 1.978-11.523 5.397c-18.364 22.036-28.477 49.968-28.477 78.653v75.949z"/><path fill="#ffffff" d="m391 350v30c0 8.284 6.716 15 15 15h50c8.284 0 15-6.716 15-15v-30z"/><path fill="#ffffff" d="m121 320v-75.949c0-28.685-10.113-56.617-28.477-78.653-2.85-3.42-7.071-5.398-11.523-5.398s-8.673 1.978-11.523 5.397c-18.364 22.037-28.477 49.969-28.477 78.654v75.949z"/><path fill="#ffffff" d="m41 350v30c0 8.284 6.716 15 15 15h50c8.284 0 15-6.716 15-15v-30z"/></g></svg>
